<svg width="33" height="29" viewBox="0 0 33 29" fill="none" xmlns="http://www.w3.org/2000/svg">
<path d="M18.8899 23.0466C17.5738 23.0466 16.5069 24.1135 16.5069 25.4296C16.5069 26.7456 17.5738 27.8125 18.8899 27.8125C20.206 27.8125 21.2729 26.7456 21.2729 25.4296C21.2729 24.1135 20.206 23.0466 18.8899 23.0466ZM18.8899 23.0466H7.41265C6.81971 23.0466 6.31699 22.6106 6.23314 22.0236L5.86864 19.4721M1.01758 6.36572H3.9963L4.33673 8.7487M4.33673 8.7487H4.59205H23.6559L20.0814 19.4721H6.37928H5.86864M4.33673 8.7487L5.86864 19.4721M11.741 25.4296C11.741 26.7456 10.6741 27.8125 9.358 27.8125C8.04192 27.8125 6.97502 26.7456 6.97502 25.4296C6.97502 24.1135 8.04192 23.0466 9.358 23.0466C10.6741 23.0466 11.741 24.1135 11.741 25.4296Z" stroke="#EF1326" stroke-width="1.5" stroke-linecap="round" stroke-linejoin="round"/>
<ellipse cx="23.6665" cy="8.48165" rx="8.35012" ry="8.48165" fill="#EF1326"/>
</svg>
