<svg width="25" height="35" viewBox="0 0 25 35" fill="none" xmlns="http://www.w3.org/2000/svg">
<g clip-path="url(#clip0_1038_4041)">
<path d="M2.88325 9.91724C2.71092 7.70757 3.28756 5.80533 5.05065 4.37064C6.15262 3.45055 7.57186 2.96369 9.02754 3.0064C9.90539 3.00846 10.7718 3.19918 11.5639 3.56474C12.3561 3.93031 13.0542 4.46155 13.6076 5.12C14.165 5.78598 14.5755 6.55515 14.8137 7.38017C15.052 8.20519 15.1129 9.0686 14.9929 9.91724H16.9813C17.79 9.91724 17.8828 10.0069 17.8828 10.7563V26.4097C17.8828 27.1911 17.8098 27.2616 17.0078 27.2616H0.835149C0.0729111 27.2616 0 27.1911 0 26.4738V10.7307C0 9.9941 0.0795399 9.92364 0.861662 9.91724H2.88325ZM0.96771 10.8652V26.3393H16.9084V10.8716H15.0194V15.6304C15.0194 15.957 14.9067 16.2004 14.5422 16.194C14.1776 16.1876 14.0848 15.957 14.0782 15.656V10.8716H3.80456V12.1013C3.80456 13.2029 3.80456 14.2982 3.80456 15.3998C3.80456 15.7521 3.86422 16.2004 3.32734 16.1876C2.79046 16.1748 2.88325 15.7264 2.86999 15.3806C2.86999 15.2525 2.86999 15.1308 2.86999 15.0091C2.86999 13.7986 2.86999 12.5945 2.86999 11.384C2.86999 11.2174 2.86999 11.0509 2.86999 10.8652H0.96771ZM3.86421 9.88522H14.0716C14.2903 7.75881 13.6938 5.96545 11.8246 4.76133C11.0188 4.19497 10.0518 3.88247 9.05546 3.86642C8.05914 3.85037 7.08192 4.13156 6.25698 4.67166C4.26853 5.84375 3.63223 7.68195 3.86421 9.88522Z" fill="#EF1326" stroke="#EF1326" stroke-width="0.5"/>
</g>
<ellipse cx="17.0199" cy="13.0931" rx="7.00814" ry="7.11853" fill="#EF1326"/>
<defs>
<clipPath id="clip0_1038_4041">
<rect width="18" height="35" fill="white"/>
</clipPath>
</defs>
</svg>
